<?xml version="1.0" encoding="UTF-8" standalone="no"?>
<!-- Created with Inkscape (http://www.inkscape.org/) -->

<svg
   width="155.61469mm"
   height="121.81506mm"
   viewBox="0 0 155.61469 121.81506"
   version="1.1"
   id="svg1"
   inkscape:version="1.3 (0e150ed6c4, 2023-07-21)"
   sodipodi:docname="drawing.svg"
   xmlns:inkscape="http://www.inkscape.org/namespaces/inkscape"
   xmlns:sodipodi="http://sodipodi.sourceforge.net/DTD/sodipodi-0.dtd"
   xmlns="http://www.w3.org/2000/svg"
   xmlns:svg="http://www.w3.org/2000/svg">
  <sodipodi:namedview
     id="namedview1"
     pagecolor="#040916"
     bordercolor="#000000"
     borderopacity="0.25"
     inkscape:showpageshadow="2"
     inkscape:pageopacity="0.0"
     inkscape:pagecheckerboard="0"
     inkscape:deskcolor="#d1d1d1"
     inkscape:document-units="mm"
     inkscape:zoom="1.0307169"
     inkscape:cx="308.52313"
     inkscape:cy="284.75326"
     inkscape:window-width="2256"
     inkscape:window-height="1427"
     inkscape:window-x="0"
     inkscape:window-y="0"
     inkscape:window-maximized="1"
     inkscape:current-layer="layer1" />
  <defs
     id="defs1">
    <linearGradient
       id="swatch6"
       inkscape:swatch="solid">
      <stop
         style="stop-color:#ffffff;stop-opacity:1;"
         offset="0"
         id="stop6" />
    </linearGradient>
  </defs>
  <g
     inkscape:label="Layer 1"
     inkscape:groupmode="layer"
     id="layer1"
     transform="translate(-23.407206,-57.323134)">
    <path
       style="fill:#ffffff;fill-opacity:1;fill-rule:nonzero;stroke-width:0.124817"
       d="m 94.855481,143.37079 c -2.232436,-0.40917 -3.613245,-0.93696 -5.39574,-2.06249 -0.920921,-0.5815 -2.567422,-2.03502 -2.721127,-2.40215 -0.02118,-0.0506 0.528689,-0.12304 1.221936,-0.16107 3.492676,-0.19133 6.362601,-1.53577 7.592432,-3.55675 0.145952,-0.23983 0.533575,-1.53076 0.861399,-2.86872 0.694786,-2.83564 1.655294,-6.35283 1.782334,-6.52656 0.10479,-0.14327 0.0817,-0.14589 4.618565,0.52252 1.95102,0.28743 3.70669,0.58397 3.90149,0.65899 0.40069,0.1543 0.63967,0.6261 1.4046,2.77315 l 0.48188,1.35251 -0.87887,0.77034 c -1.01688,0.8913 -1.31347,1.45163 -1.05142,1.98634 0.37105,0.75706 1.07315,0.74646 2.63525,-0.0398 2.32964,-1.1726 2.6488,-1.65864 2.07372,-3.1578 -1.03821,-2.70629 -2.54412,-6.16086 -2.76826,-6.35027 -0.1809,-0.15289 -0.72423,-0.28468 -1.81496,-0.44021 -0.85624,-0.1221 -2.59542,-0.38196 -3.86488,-0.57749 -6.802016,-1.04768 -6.464967,-0.97244 -6.723963,-1.50089 -0.122759,-0.25048 -0.117262,-0.39043 0.02529,-0.64179 0.341455,-0.60211 0.501588,-0.59599 5.904493,0.22545 2.75168,0.41836 5.43073,0.81622 5.95344,0.88414 1.15973,0.15065 1.82339,0.42475 2.1411,0.88427 0.13208,0.19117 0.69527,1.46336 1.25132,2.82709 0.55606,1.36374 1.10247,2.62897 1.21421,2.81161 0.34034,0.55624 1.05443,0.64173 1.66324,0.19912 0.66573,-0.48397 0.70056,-0.37282 -2.06988,-6.60939 -0.88537,-1.99313 -1.19712,-2.53977 -1.55658,-2.7295 -0.14911,-0.0787 -2.27115,-0.42646 -4.71574,-0.77284 -7.833725,-1.11002 -8.072365,-1.15102 -8.343155,-1.43365 -0.33569,-0.35037 -0.305349,-0.82625 0.0717,-1.12566 0.37188,-0.29526 0.67306,-0.30544 2.316475,-0.0782 0.68132,0.0942 3.40768,0.45726 6.05861,0.80688 2.65091,0.3496 5.01305,0.68815 5.24917,0.75233 0.23615,0.0642 0.58422,0.24757 0.7735,0.40755 0.30214,0.25533 1.8034,3.26499 3.13822,6.29125 0.19369,0.43916 0.45124,0.89098 0.5723,1.00404 0.33929,0.31686 1.05129,0.26729 1.39014,-0.0968 0.5327,-0.57239 0.55973,-0.49836 -2.10818,-5.77932 -1.61417,-3.19511 -2.15029,-4.08544 -2.63394,-4.37404 -0.32412,-0.1934 -2.34336,-0.48223 -11.54048,-1.65076 -1.306805,-0.16603 -2.421535,-0.33944 -2.477185,-0.38537 -0.0556,-0.0459 0.32187,-1.50117 0.8389,-3.23387 1.779645,-5.96394 2.613425,-10.060912 2.796125,-13.738853 0.0985,-1.986429 0.15538,-2.292549 0.44965,-2.425648 0.38895,-0.175919 1.02827,0.166316 1.36028,0.728172 0.88529,1.498192 1.26773,4.204578 1.46855,10.392589 0.0678,2.09261 0.13074,2.86192 0.20176,2.46708 0.4698,-2.61507 0.61349,-11.300502 0.2164,-13.081306 -0.35643,-1.598532 -1.13837,-2.607287 -2.43102,-3.136163 -1.52335,-0.623255 -3.2617,0.0046 -3.759565,1.357558 -0.0813,0.220893 -0.21244,1.356898 -0.29146,2.524466 -0.40103,5.924915 -1.33237,9.947135 -4.038618,17.441755 -0.489967,1.3569 -0.973764,2.72527 -1.075112,3.04083 -0.205737,0.64059 -1.069017,2.95568 -1.754343,4.70469 -0.247294,0.63112 -0.693148,1.81875 -0.99078,2.63921 -0.297641,0.82045 -0.703048,1.93064 -0.900911,2.46708 -0.197865,0.53646 -0.564237,1.5692 -0.81417,2.29498 -0.249925,0.72579 -0.552018,1.51437 -0.671325,1.75244 l -0.216915,0.43281 -0.818986,-0.47004 c -2.002548,-1.14935 -4.707153,-3.32623 -6.550534,-5.27241 -0.932502,-0.9845 -2.983783,-3.57408 -3.486631,-4.4016 -0.292576,-0.48147 -0.311009,-0.57237 -0.135134,-0.66632 0.112013,-0.0598 1.700527,-0.89541 3.530035,-1.8568 l 3.326375,-1.74798 0.06789,-4.55713 0.06789,-4.55714 0.406956,0.3645 c 0.651638,0.58366 1.688795,1.23593 2.548195,1.60259 0.711263,0.30345 2.578099,0.78144 3.070072,0.78608 0.102903,5.2e-4 -0.346372,-0.31894 -0.998368,-0.7109 -1.400341,-0.84186 -3.113039,-2.23998 -4.117104,-3.3609 -0.969044,-1.08183 -2.118233,-3.08688 -2.532065,-4.41782 -0.386987,-1.244594 -0.820581,-3.401323 -0.963139,-4.790744 -0.09246,-0.901102 -0.213108,-1.148093 -0.380615,-0.779163 -0.04184,0.09213 -0.332473,0.3245 -0.645864,0.516369 -0.641741,0.392896 -1.436423,0.463024 -2.198276,0.193991 -1.068991,-0.377498 -2.485115,-2.198617 -3.270294,-4.205573 -0.951411,-2.43185 -1.359931,-4.522087 -1.368019,-6.999648 -0.0054,-1.619133 0.02217,-1.829917 0.30631,-2.350915 0.556921,-1.021202 1.241912,-1.43578 2.372276,-1.43578 1.218894,0 2.581036,0.90554 3.408994,2.266279 0.298573,0.4907 0.352817,0.470612 0.207296,-0.07677 -0.812288,-3.055473 -1.004313,-8.035679 -0.416249,-10.795642 0.48612,-2.281522 1.628104,-4.597551 3.286715,-6.665697 1.092829,-1.362665 3.695003,-3.574623 5.424189,-4.610787 3.404482,-2.040045 8.05955,-3.36357 12.297554,-3.496428 8.86978,-0.278063 16.74542,3.284362 20.90768,9.457294 2.46793,3.660159 3.19585,7.673633 2.38963,13.175887 -0.16647,1.136006 -0.36044,2.272011 -0.43111,2.524459 -0.19979,0.713763 -0.17009,0.712628 0.38617,-0.01479 0.90575,-1.184368 1.95225,-1.76382 3.18552,-1.76382 2.07467,0 3.02369,1.743839 2.67678,4.918592 -0.35027,3.205296 -1.08025,5.54348 -2.4137,7.731238 -0.78424,1.286624 -1.55099,2.065396 -2.30219,2.338261 -0.95974,0.348612 -2.15142,0.08305 -2.69055,-0.59958 l -0.28169,-0.356652 -0.24472,1.660183 c -0.57139,3.875896 -1.31966,5.774246 -3.23018,8.195096 -0.97603,1.23669 -3.08768,3.1334 -4.09586,3.67893 -0.56427,0.30534 -0.64005,0.38162 -0.40719,0.40985 0.4513,0.0547 2.02379,-0.29071 2.76137,-0.60659 0.36965,-0.15833 1.06335,-0.59715 1.54147,-0.97516 l 0.86932,-0.68731 0.0854,0.60082 c 0.0467,0.33045 0.0859,1.54328 0.0866,2.69516 l 5.6e-4,2.09437 2.81541,1.57759 c 2.44254,1.36865 2.86959,1.65246 3.22455,2.14286 0.36162,0.49965 0.40866,0.66616 0.4051,1.43436 -0.002,0.5967 -0.0769,0.98377 -0.23681,1.23504 l -0.23281,0.36595 0.54636,0.25953 c 0.30149,0.14322 0.51767,0.32268 0.48237,0.40045 -0.12626,0.27827 -3.11919,4.01377 -3.71107,4.63195 -2.37829,2.48396 -4.64056,4.31395 -7.02553,5.68307 l -1.12675,0.64685 -0.0955,0.64654 c -0.25695,1.73806 -2.0408,4.98644 -3.68419,6.70884 -1.95098,2.04477 -4.37844,3.7932 -6.56738,4.73027 -0.89376,0.38261 -3.08217,0.95019 -4.42912,1.1487 -1.600345,0.23588 -4.16576,0.21043 -5.617886,-0.0557 z m 28.616309,-25.21593 c 1.00324,-0.3902 1.3085,-1.40074 0.59364,-1.96512 -0.21341,-0.1685 -1.29788,-0.79356 -2.40993,-1.389 -1.11207,-0.59547 -3.21327,-1.75341 -4.66943,-2.57323 -1.45612,-0.81982 -3.00845,-1.6484 -3.44959,-1.84131 l -0.80207,-0.35072 -3.81993,-0.0336 -3.81993,-0.0336 -0.16264,1.22998 c -0.0894,0.6765 -0.12775,1.25964 -0.085,1.29585 0.0427,0.0361 1.43211,0.0939 3.08748,0.12813 1.69869,0.0351 3.1577,0.11674 3.34926,0.18731 0.18668,0.0687 2.20288,1.17259 4.48043,2.4529 4.6552,2.61689 5.24399,2.92559 5.87099,3.07816 0.51932,0.12637 1.21516,0.056 1.83667,-0.18573 z"
       id="path1" />
    <text
       xml:space="preserve"
       style="font-size:34.7593px;font-family:inter;-inkscape-font-specification:inter;fill:#ffffff;fill-opacity:1;stroke-width:0.362076"
       x="22.148169"
       y="178.76788"
       id="text1"><tspan
         sodipodi:role="line"
         id="tspan1"
         x="22.148169"
         y="178.76788"
         style="font-style:normal;font-variant:normal;font-weight:bold;font-stretch:normal;font-family:inter;-inkscape-font-specification:'inter Bold';fill:#ffffff;fill-opacity:1;stroke-width:0.362076">subtle.sh</tspan></text>
  </g>
</svg>
